<svg width="32" height="41" viewBox="0 0 32 41" fill="none" xmlns="http://www.w3.org/2000/svg">
<path fill-rule="evenodd" clip-rule="evenodd" d="M14.5776 1.05198C14.1006 1.5289 14.4386 2.35438 15.1108 2.35438C15.5061 2.35438 15.88 1.98044 15.88 1.58515C15.88 1.18986 15.5061 0.815918 15.1108 0.815918C14.9235 0.815918 14.7264 0.90313 14.5776 1.05198ZM10.14 1.96553C9.97106 2.06861 9.76924 2.25236 9.69155 2.3738C9.61385 2.49534 9.43722 3.37361 9.29904 4.32553C9.16087 5.27746 9.02645 6.1539 9.00039 6.27313C8.96328 6.44294 8.58366 6.67515 7.24828 7.34476C6.31058 7.81486 5.43991 8.31082 5.31328 8.44688C5.15655 8.61544 5.07049 8.84082 5.04356 9.15409C4.97472 9.95323 5.14385 10.1103 7.15155 11.1134C8.11808 11.5963 8.92635 12.0076 8.9477 12.0275C8.96914 12.0473 9.10789 12.8753 9.25606 13.8677C9.40433 14.8599 9.54808 15.7616 9.57549 15.8715C9.65491 16.1897 10.0574 16.5614 10.4355 16.6658C11.0688 16.8406 11.3061 16.6918 12.8338 15.1608L14.2587 13.733L16.2472 14.0709C18.1781 14.3991 18.2456 14.4041 18.5723 14.2438C19.0015 14.0333 19.2525 13.6876 19.3152 13.2207C19.3581 12.9009 19.2685 12.6661 18.6393 11.4494L17.914 10.0467H24.3534H30.7926L31.0286 9.81063C31.3409 9.49842 31.3409 9.0565 31.0286 8.74428L30.7926 8.50823H24.3408H17.8889L18.6152 7.10832C19.0147 6.33842 19.3415 5.6014 19.3415 5.47063C19.3415 4.78774 18.7554 4.18303 18.0915 4.18101C17.9064 4.18044 16.9573 4.31621 15.9824 4.48275L14.2098 4.78534L12.8574 3.37774C12.1136 2.60351 11.3832 1.92669 11.2343 1.87371C10.8264 1.72861 10.4811 1.75755 10.14 1.96553ZM13.8569 6.39332C13.987 6.39303 14.8464 6.26063 15.7665 6.099C16.6868 5.93736 17.4605 5.82592 17.4859 5.8513C17.5113 5.87669 17.1603 6.594 16.7061 7.44524C16.2517 8.29659 15.88 9.10342 15.88 9.23832C15.88 9.37313 16.2526 10.1968 16.708 11.0685C17.1634 11.9402 17.5204 12.6691 17.5013 12.688C17.4822 12.7071 16.7526 12.5971 15.88 12.4436C13.5104 12.0268 13.8431 11.9262 12.3047 13.5244C11.106 14.7697 10.9844 14.8702 10.9374 14.6564C10.9089 14.5274 10.7785 13.692 10.6474 12.8001C10.4898 11.7276 10.3572 11.1212 10.2559 11.0092C10.1715 10.916 9.39049 10.4991 8.5201 10.0826C7.64981 9.66621 6.9377 9.30005 6.9377 9.2689C6.9377 9.23765 7.67308 8.86101 8.57183 8.43178C10.014 7.74313 10.2224 7.61419 10.3461 7.33467C10.4232 7.16044 10.5779 6.32553 10.6898 5.47938C10.8018 4.63323 10.9154 3.87601 10.9421 3.79669C10.9754 3.69784 11.4042 4.08361 12.3056 5.02313C13.3005 6.06034 13.6779 6.39371 13.8569 6.39332ZM5.34683 4.1289C4.86981 4.60582 5.2078 5.4313 5.88001 5.4313C6.06731 5.4313 6.26443 5.34409 6.41318 5.19524C6.56203 5.04649 6.64924 4.84938 6.64924 4.66207C6.64924 4.47476 6.56203 4.27765 6.41318 4.1289C6.26443 3.98005 6.06731 3.89284 5.88001 3.89284C5.6927 3.89284 5.49558 3.98005 5.34683 4.1289ZM5.73145 13.3597C5.25443 13.8366 5.59241 14.6621 6.26462 14.6621C6.45193 14.6621 6.64904 14.5749 6.7978 14.426C6.94664 14.2773 7.03385 14.0801 7.03385 13.8928C7.03385 13.7055 6.94664 13.5084 6.7978 13.3597C6.64904 13.2108 6.45193 13.1236 6.26462 13.1236C6.07731 13.1236 5.8802 13.2108 5.73145 13.3597ZM0.73145 17.9751L0.495392 18.211V21.5851V24.9593L0.73145 25.1952C0.9252 25.3891 1.0627 25.4313 1.50068 25.4313H2.03385V32.8876V40.3439L2.26991 40.5799L2.50587 40.8159H15.88H29.2541L29.4901 40.5799L29.7262 40.3439V32.8876V25.4313H30.2593C30.6973 25.4313 30.8348 25.3891 31.0286 25.1952L31.2646 24.9593V21.5851V18.211L31.0286 17.9751L30.7926 17.739H15.88H0.967411L0.73145 17.9751ZM11.2646 21.5851V23.8928H6.64924H2.03385V21.5851V19.2775H6.64924H11.2646V21.5851ZM18.9569 29.2775V39.2775H15.88H12.8031V29.2775V19.2775H15.88H18.9569V29.2775ZM29.7262 21.5851V23.8928H25.1108H20.4954V21.5851V19.2775H25.1108H29.7262V21.5851ZM11.2646 32.3544V39.2775H7.41847H3.57231V32.3544V25.4313H7.41847H11.2646V32.3544ZM28.1877 32.3544V39.2775H24.3415H20.4954V32.3544V25.4313H24.3415H28.1877V32.3544Z" fill="black"/>
</svg>
