<svg width="41" height="41" viewBox="0 0 41 41" fill="none" xmlns="http://www.w3.org/2000/svg">
<path fill-rule="evenodd" clip-rule="evenodd" d="M17.5988 1.00369C17.148 1.2426 16.6148 1.76143 16.2875 2.27963C15.6566 3.27877 15.029 3.63893 14.0677 3.55385C12.4946 3.41463 12.2262 3.41369 11.7663 3.54565C10.8872 3.79791 10.2249 4.30057 9.72165 5.09752C9.09422 6.09096 8.46477 6.45127 7.50516 6.36635C5.93024 6.22697 5.66399 6.22611 5.20383 6.35869C4.65227 6.51768 4.39563 6.73479 4.39563 7.04252C4.39563 7.57533 4.78719 7.79697 5.37493 7.59666C5.63657 7.50752 5.88055 7.48861 6.29383 7.52533C7.85305 7.66408 8.12797 7.66494 8.58743 7.53315C9.47782 7.2776 10.1284 6.77893 10.6513 5.95096C11.0557 5.31057 11.2777 5.09971 11.8035 4.85604C12.1732 4.68479 12.2856 4.66893 12.8191 4.7126C14.5256 4.85236 14.689 4.85291 15.1499 4.72065C16 4.47674 16.6923 3.96463 17.1379 3.2501C17.4752 2.70908 17.8865 2.27783 18.2381 2.09635C18.7803 1.81643 18.92 1.38479 18.5788 1.04369C18.3461 0.810881 17.9899 0.796427 17.5988 1.00369ZM26.0363 1.00369C25.5855 1.2426 25.0523 1.76143 24.725 2.27963C24.0941 3.27877 23.4665 3.63893 22.5052 3.55385C20.9321 3.41463 20.6637 3.41369 20.2038 3.54565C19.3538 3.78955 18.6615 4.30166 18.2159 5.01619C17.8741 5.56424 17.468 5.98713 17.0909 6.18744C16.7477 6.36986 16.1763 6.39385 14.8177 6.28268C13.6726 6.18901 12.8331 6.51041 12.8331 7.04252C12.8331 7.57533 13.2247 7.79697 13.8124 7.59666C14.0741 7.50752 14.3181 7.48861 14.7313 7.52533C16.2906 7.66408 16.5655 7.66494 17.0249 7.53315C17.9153 7.2776 18.5659 6.77893 19.0888 5.95096C19.4932 5.31057 19.7152 5.09971 20.241 4.85604C20.6107 4.68479 20.7231 4.66893 21.2566 4.7126C22.9631 4.85236 23.1265 4.85291 23.5874 4.72065C24.4375 4.47674 25.1298 3.96463 25.5754 3.2501C25.9127 2.70908 26.324 2.27783 26.6756 2.09635C27.2178 1.81643 27.3575 1.38479 27.0163 1.04369C26.7836 0.810881 26.4274 0.796427 26.0363 1.00369ZM4.1968 10.3406C4.09133 10.446 4.005 10.5722 4.005 10.621C4.005 10.6699 3.30188 17.3163 2.4425 25.391C1.58313 33.4656 0.880005 40.1437 0.880005 40.2312C0.880005 40.3187 0.966333 40.4765 1.0718 40.582L1.26352 40.7738H20.88H40.4965L40.6882 40.582L40.88 40.3903V30.7738V21.1573L40.6802 20.9575C40.5281 20.8054 40.4209 20.7653 40.231 20.7895C40.0545 20.812 38.1991 22.0956 33.8878 25.1781L27.7941 29.535L27.755 25.3037L27.7159 21.0724L27.5234 20.9165C27.3966 20.8138 27.2498 20.771 27.0937 20.7911C26.9405 20.8109 24.9823 22.1016 21.5577 24.4403C18.6434 26.4306 16.2319 28.0281 16.1988 27.9906C16.1657 27.953 15.7257 24.0203 15.2209 19.2512C14.716 14.4821 14.2703 10.5191 14.2303 10.4444C14.1904 10.3697 14.0905 10.2727 14.0084 10.2287C13.9113 10.1767 12.202 10.1488 9.12375 10.1488H4.38852L4.1968 10.3406ZM13.1456 11.4788C13.1456 11.5229 13.8136 17.8307 14.63 25.4963C15.4464 33.1617 16.1144 39.4538 16.1144 39.4787C16.1144 39.5035 12.9855 39.5238 9.16125 39.5238C5.33704 39.5238 2.20813 39.5019 2.20813 39.4752C2.20813 39.4485 2.8761 33.1542 3.6925 25.4881C4.50891 17.8218 5.17688 11.5155 5.17688 11.4741C5.17688 11.4267 6.65602 11.3988 9.16125 11.3988C11.8299 11.3988 13.1456 11.4252 13.1456 11.4788ZM26.7285 31.2495C26.8299 31.3316 27.0082 31.3988 27.1247 31.3988C27.2794 31.3988 28.9666 30.2349 33.3906 27.0763C36.7204 24.6991 39.4865 22.7282 39.5374 22.6967C39.6086 22.6528 39.63 24.5943 39.63 31.0817V39.5238H28.5082H17.3864L17.3048 38.8011C17.26 38.4037 17.0198 36.1501 16.7709 33.7931C16.3831 30.12 16.3345 29.4986 16.4313 29.4427C16.4933 29.4069 18.7765 27.8544 21.505 25.9928L26.4659 22.6081L26.505 26.8542L26.5441 31.1002L26.7285 31.2495Z" fill="black"/>
</svg>
