<svg width="41" height="38" viewBox="0 0 41 38" fill="none" xmlns="http://www.w3.org/2000/svg">
<path fill-rule="evenodd" clip-rule="evenodd" d="M19.6729 0.522813C16.7776 0.853914 15.0436 1.33721 12.9109 2.4074C10.5178 3.60837 8.42797 5.36403 6.74882 7.58427C6.13409 8.39718 6.06158 8.57255 6.18911 8.93846C6.30314 9.26565 6.515 9.40537 6.89683 9.40537C7.19358 9.40537 7.38552 9.22544 8.03869 8.3349C8.70126 7.43143 10.1524 5.99374 11.1865 5.21603C13.2954 3.63006 15.6976 2.61125 18.4628 2.13001C19.3771 1.97083 22.3889 1.97083 23.3032 2.13001C26.2942 2.65053 28.8636 3.79519 31.0757 5.59255C31.8773 6.24386 33.3667 7.79399 33.8683 8.49892C34.4271 9.28455 34.7762 9.39606 35.236 8.93623C35.6275 8.54472 35.5523 8.27263 34.7779 7.2784C32.0409 3.76447 28.0821 1.43941 23.5824 0.703117C22.7121 0.560699 20.3103 0.449928 19.6729 0.522813ZM36.7314 10.4195C33.2282 11.639 30.9948 14.8733 30.8889 18.8808L30.8611 19.9321L30.1159 20.5771C28.4005 22.0619 26.7742 24.626 25.9909 27.081C25.801 27.6763 25.7151 27.8117 25.3519 28.0885C23.9968 29.121 22.3927 30.8499 21.4235 32.3228C21.1607 32.7221 20.9175 33.0488 20.883 33.0488C20.8485 33.0488 20.6053 32.7221 20.3426 32.3228C19.3747 30.8521 17.781 29.1334 16.415 28.0876C16.0329 27.795 15.9682 27.6834 15.6777 26.8165C14.8756 24.4225 13.2206 21.8821 11.5269 20.4452L10.9046 19.9173L10.8769 18.8733C10.808 16.269 9.94468 14.1774 8.23342 12.4685C7.23724 11.4737 6.44397 10.9545 5.26013 10.5224C4.1178 10.1056 3.66885 10.1584 3.48911 10.7311C3.11389 11.9265 3.0518 14.9292 3.3708 16.4478C3.47998 16.9678 3.56935 17.412 3.56935 17.4348C3.56935 17.4576 3.22242 17.5029 2.79842 17.5355C1.8458 17.6087 1.09023 17.8245 0.964571 18.0592C0.79944 18.3678 0.859014 18.7184 1.29642 20.012C1.8188 21.557 2.60406 23.1842 3.46137 24.498L4.10756 25.4882L3.34976 25.7359C2.34343 26.0647 1.51274 26.5189 1.33747 26.8359C1.20296 27.0792 1.21227 27.1243 1.51926 27.7179C2.36102 29.3452 4.06763 31.5981 5.66328 33.1884C7.83512 35.3528 9.77797 36.5077 12.04 36.9787C13.2019 37.2206 15.3276 37.1711 16.7864 36.868C17.8067 36.656 19.5456 36.1064 20.4125 35.7219L20.9192 35.4971L21.4829 35.7513C23.1693 36.512 25.3943 37.0357 27.278 37.1155C29.774 37.2212 31.4514 36.7383 33.5947 35.2972C35.7732 33.8322 38.1154 31.2627 39.8113 28.477C40.5351 27.2881 40.6025 27.0859 40.3856 26.7548C40.2098 26.4864 39.0307 25.8969 38.1788 25.6515L37.649 25.4989L38.2386 24.5963C39.6061 22.5027 41.0544 18.9847 40.8629 18.2217C40.8282 18.0838 40.6866 17.9147 40.5457 17.843C40.2301 17.6825 39.215 17.5037 38.6195 17.5037H38.1734L38.2386 17.2012C38.6155 15.4515 38.7086 13.4207 38.4852 11.8256C38.3224 10.6626 38.2304 10.4339 37.8637 10.2806C37.4848 10.1223 37.64 10.1033 36.7314 10.4195ZM5.36429 12.1614C7.19563 13.0772 8.67231 14.9834 9.14192 17.0383C9.30547 17.7535 9.46037 18.9 9.39353 18.9C9.37882 18.9 9.05722 18.7577 8.67883 18.5839C7.85336 18.2047 6.69046 17.831 5.85987 17.6779C5.28526 17.572 5.24551 17.5478 5.11622 17.2246C4.82524 16.4975 4.66634 15.4136 4.65899 14.1061C4.6521 12.8975 4.73085 11.9186 4.83483 11.9186C4.85893 11.9186 5.09723 12.0279 5.36429 12.1614ZM37.0447 12.3608C37.253 13.683 37.0458 16.2351 36.6498 17.2246C36.5205 17.5478 36.4808 17.572 35.9061 17.6779C35.0756 17.831 33.9127 18.2047 33.0872 18.5839C32.7088 18.7577 32.3872 18.9 32.3725 18.9C32.3056 18.9 32.4605 17.7535 32.6241 17.0383C32.9671 15.5376 33.9435 13.935 35.0628 13.0357C35.532 12.6587 36.7497 11.9238 36.9111 11.9201C36.9464 11.9193 37.0065 12.1176 37.0447 12.3608ZM18.1328 12.2403C17.9887 12.3843 17.9043 12.5751 17.9043 12.7564C17.9043 12.9377 17.9887 13.1286 18.1328 13.2726C18.3435 13.4833 18.4305 13.5011 19.2498 13.5011H20.1383V17.9691V22.4372H19.2498C18.4305 22.4372 18.3435 22.4549 18.1328 22.6657C17.8305 22.9679 17.8305 23.3957 18.1328 23.698L18.3613 23.9265H20.883H23.4048L23.6332 23.698C23.7773 23.554 23.8617 23.3632 23.8617 23.1818C23.8617 23.0005 23.7773 22.8097 23.6332 22.6657C23.4225 22.4549 23.3355 22.4372 22.5162 22.4372H21.6277V17.9691V13.5011H22.5162C23.3355 13.5011 23.4225 13.4833 23.6332 13.2726C23.7773 13.1286 23.8617 12.9377 23.8617 12.7564C23.8617 12.5751 23.7773 12.3843 23.6332 12.2403L23.4048 12.0117H20.883H18.3613L18.1328 12.2403ZM6.31319 19.3073C8.72323 19.9412 10.9617 21.5622 12.4997 23.7873C12.9823 24.4855 14.0327 26.4329 13.9638 26.5018C13.9458 26.5198 13.6627 26.4129 13.3346 26.2642C13.0066 26.1156 12.3193 25.8649 11.8073 25.7072C10.2629 25.2315 9.3885 25.109 7.46995 25.099C6.12972 25.0921 5.7033 25.0606 5.58117 24.9592C5.30341 24.7287 4.31132 23.1732 3.82868 22.2113C3.35981 21.277 2.54542 19.291 2.54542 19.0819C2.54542 18.9982 2.8984 18.982 3.96495 19.0167C5.09239 19.0535 5.57559 19.1133 6.31319 19.3073ZM39.2206 19.0321C39.2206 19.0536 39.0905 19.4412 38.9315 19.8932C38.3609 21.5149 37.3128 23.5079 36.4436 24.6242L36.0815 25.0891L34.2768 25.0989C32.8157 25.1069 32.2811 25.1476 31.4699 25.3125C30.443 25.5212 28.8516 26.033 28.2076 26.3615C28.0089 26.4629 27.829 26.5286 27.8079 26.5075C27.7868 26.4864 27.9924 26.0305 28.2649 25.4943C30.021 22.0381 32.6619 19.8856 36.0092 19.1822C36.7572 19.025 39.2206 18.9099 39.2206 19.0321ZM9.03506 26.6329C13.2234 27.0999 16.8333 29.5708 19.5214 33.8104L19.8568 34.3393L19.096 34.6327C18.0472 35.0371 16.486 35.4349 15.4204 35.5689C14.3495 35.7037 12.5968 35.6342 11.8073 35.4256C9.28332 34.7586 6.20651 32.1443 3.84143 28.6569C3.43577 28.0588 3.10393 27.5296 3.10393 27.481C3.10393 27.3898 4.27409 27.0014 5.11734 26.8127C6.3103 26.5457 7.68683 26.4826 9.03506 26.6329ZM35.4066 26.6271C36.7275 26.7849 38.6621 27.2923 38.6621 27.481C38.6621 27.5296 38.3302 28.0588 37.9246 28.6569C35.5832 32.1093 32.6074 34.664 30.0983 35.3758C29.2027 35.6298 27.4628 35.7191 26.3369 35.5688C25.2982 35.4301 23.6343 35.0045 22.6564 34.6275L21.9093 34.3393L22.2446 33.8104C23.3837 32.0139 25.0795 30.1307 26.4681 29.1202C29.1828 27.1449 32.3488 26.2618 35.4066 26.6271Z" fill="black"/>
</svg>
