<svg width="33" height="41" viewBox="0 0 33 41" fill="none" xmlns="http://www.w3.org/2000/svg">
<path fill-rule="evenodd" clip-rule="evenodd" d="M15.6916 1.54546C11.9905 4.42646 7.24719 6.48883 2.63782 7.2211C1.34255 7.42683 1.33637 7.42892 1.19282 7.70655C0.951278 8.17374 0.819641 10.6647 0.819641 14.7705C0.819641 18.9025 0.884096 20.0024 1.27628 22.5635C1.67373 25.1586 2.244 27.0826 3.09537 28.7001C4.848 32.0297 7.86737 35.2319 11.8196 37.9526C13.75 39.2814 16.4469 40.8159 16.8519 40.8159C17.2702 40.8159 19.698 39.4559 21.6833 38.1095C26.6977 34.7086 30.2082 30.5859 31.539 26.5345C32.5994 23.3066 33.0202 19.3986 32.928 13.6341C32.8719 10.1267 32.7375 8.09355 32.5358 7.70355C32.394 7.42937 32.3888 7.42765 31.0924 7.21974C26.4422 6.47392 21.7579 4.43346 18.0083 1.52046C17.4091 1.05501 17.0212 0.815918 16.8651 0.815918C16.7081 0.815918 16.3142 1.06083 15.6916 1.54546ZM17.5326 3.00019C19.4483 4.45037 22.2409 5.98301 24.7782 6.97646C26.7548 7.75046 28.1123 8.13174 30.956 8.71165L31.2742 8.77646L31.3342 9.45528C31.4703 10.9946 31.5255 16.6091 31.4209 18.2705C31.0394 24.3321 30.177 27.2571 27.8457 30.3965C25.5494 33.4888 21.7434 36.6505 17.6614 38.8566L16.8667 39.2861L16.0705 38.8538C12.3438 36.8308 8.64428 33.8677 6.48373 31.1754C3.67955 27.681 2.69328 24.6515 2.312 18.3614C2.20664 16.6218 2.25846 11.1929 2.39673 9.49828L2.456 8.77165L3.04691 8.65283C8.08228 7.6401 12.3531 5.82537 15.9789 3.15792C16.4386 2.81983 16.8403 2.54319 16.8717 2.54319C16.9032 2.54319 17.2006 2.74883 17.5326 3.00019ZM16.4891 10.9781C16.3074 11.0639 14.3984 12.1533 12.2469 13.3989C9.49764 14.9908 8.30601 15.7282 8.23655 15.8805C8.09928 16.1817 8.09901 25.4494 8.23619 25.7506C8.36601 26.0354 16.5089 30.7553 16.8706 30.7553C17.0963 30.7553 18.0628 30.2158 24.0614 26.7417C24.9223 26.2431 25.4292 25.8928 25.4932 25.7523C25.6324 25.4468 25.6315 16.183 25.4922 15.8774C25.4206 15.7203 24.221 14.9825 21.2876 13.2913C19.0303 11.9899 17.1015 10.9019 17.0015 10.8736C16.9015 10.8453 16.6709 10.8923 16.4891 10.9781ZM20.1619 14.3159C21.8969 15.3159 23.3171 16.1609 23.318 16.1937C23.3203 16.2753 17.0146 19.9068 16.8706 19.9068C16.7303 19.9068 10.4098 16.2697 10.4124 16.1905C10.4154 16.1019 16.8085 12.4469 16.9136 12.4737C16.9653 12.4869 18.427 13.3159 20.1619 14.3159ZM13.2506 19.5644L16.1359 21.225L16.1369 24.975C16.1374 27.0376 16.1071 28.7235 16.0696 28.7216C16.0322 28.7198 14.5696 27.8908 12.8196 26.8795L9.63782 25.0406L9.6141 21.2406L9.59037 17.4407L9.97773 17.6723C10.1908 17.7996 11.6636 18.6511 13.2506 19.5644ZM24.1013 24.9618C24.0646 25.0573 17.7796 28.725 17.6526 28.725C17.6195 28.725 17.5931 27.0376 17.5939 24.975L17.5955 21.225L20.8439 19.3573L24.0924 17.4896L24.1161 21.1754C24.1292 23.2026 24.1226 24.9065 24.1013 24.9618Z" fill="black"/>
</svg>
