<svg width="41" height="41" viewBox="0 0 41 41" fill="none" xmlns="http://www.w3.org/2000/svg">
<path fill-rule="evenodd" clip-rule="evenodd" d="M15.3618 0.923261C15.1052 1.04735 15.0468 1.20644 14.6013 2.99696C14.3962 3.82194 14.1189 4.69793 13.9852 4.94356C13.2849 6.23045 11.8598 7.00362 10.4236 6.87572C10.0986 6.84681 9.19034 6.63727 8.40526 6.41C7.62018 6.18282 6.87174 5.99691 6.7421 5.99691C6.46274 5.99691 6.06002 6.36754 6.06002 6.62454C6.06002 6.72436 6.26929 7.55143 6.52511 8.4626C6.95019 9.97658 6.98692 10.1828 6.95146 10.8577C6.90228 11.7956 6.54283 12.6136 5.8953 13.2612C5.26385 13.8925 4.76013 14.1151 2.91071 14.5793C1.55227 14.9204 1.254 15.0256 1.08282 15.2241C0.689467 15.6805 0.766466 15.8195 2.23899 17.3119C3.35652 18.4446 3.64979 18.7981 3.87987 19.2899C4.38523 20.3699 4.32514 21.6863 3.72333 22.7217C3.59179 22.9479 2.89762 23.7057 2.18063 24.4057C0.835192 25.7193 0.765011 25.8303 0.981008 26.3043C1.1111 26.59 1.23991 26.6387 3.06007 27.0915C3.88506 27.2967 4.76104 27.574 5.00667 27.7077C6.29356 28.4079 7.06673 29.8331 6.93883 31.2693C6.90992 31.5943 6.70038 32.5025 6.47311 33.2876C6.24593 34.0727 6.06002 34.8211 6.06002 34.9508C6.06002 35.2301 6.43065 35.6328 6.68765 35.6328C6.78747 35.6328 7.61454 35.4236 8.52571 35.1677C10.0397 34.7427 10.246 34.7059 10.9208 34.7414C11.8588 34.7906 12.6767 35.15 13.3243 35.7976C13.9556 36.429 14.1782 36.9327 14.6424 38.7822C14.9835 40.1406 15.0887 40.4389 15.2872 40.61C15.7436 41.0034 15.8826 40.9264 17.375 39.4539C18.5077 38.3363 18.8612 38.0431 19.353 37.813C20.4323 37.308 21.7466 37.3675 22.7848 37.9686C23.011 38.0995 23.7688 38.7937 24.4688 39.511C25.5735 40.6431 25.7793 40.8153 26.0269 40.8149C26.5784 40.8142 26.676 40.6354 27.1126 38.8242C27.3567 37.8119 27.6129 36.9763 27.7643 36.698C28.4713 35.3989 29.8907 34.6257 31.3324 34.754C31.6574 34.7829 32.5656 34.9925 33.3507 35.2197C34.1358 35.4469 34.8842 35.6328 35.0139 35.6328C35.2932 35.6328 35.6959 35.2622 35.6959 35.0052C35.6959 34.9054 35.4867 34.0783 35.2309 33.1671C34.8058 31.6532 34.769 31.4469 34.8045 30.7721C34.8537 29.8341 35.2131 29.0161 35.8607 28.3686C36.4881 27.7412 36.9624 27.5318 38.8323 27.0563C40.1927 26.7103 40.5031 26.6004 40.6731 26.4042C41.0738 25.9421 40.9937 25.7985 39.5153 24.3288C38.0197 22.842 37.7565 22.4457 37.5797 21.4137C37.5036 20.9691 37.5036 20.6607 37.5797 20.2161C37.7583 19.174 38.0326 18.7583 39.4804 17.3363C40.2027 16.627 40.8171 15.9529 40.846 15.8381C40.9221 15.5345 40.7173 15.1178 40.4381 15.0084C40.3049 14.9562 39.5209 14.744 38.6959 14.5367C37.8709 14.3294 36.9949 14.0516 36.7493 13.9194C35.4664 13.2289 34.6892 11.7975 34.8171 10.3605C34.846 10.0355 35.0556 9.12723 35.2829 8.34215C35.51 7.55707 35.6959 6.80863 35.6959 6.67899C35.6959 6.39963 35.3253 5.99691 35.0683 5.99691C34.9685 5.99691 34.1414 6.20618 33.2303 6.462C31.7163 6.88708 31.51 6.92381 30.8352 6.88835C29.8972 6.83917 29.0792 6.47972 28.4317 5.83219C27.8003 5.20074 27.5778 4.69702 27.1135 2.8476C26.7724 1.48916 26.6673 1.19089 26.4687 1.01971C26.0124 0.626356 25.8734 0.703355 24.3809 2.17588C23.2482 3.29341 22.8948 3.58668 22.403 3.81676C21.323 4.32212 20.0065 4.26203 18.9712 3.66022C18.7449 3.52868 17.9871 2.83451 17.2871 2.11752C15.9619 0.760082 15.8468 0.688719 15.3618 0.923261ZM18.2234 4.90893C18.9863 5.37019 19.6154 5.55492 20.6054 5.60864C22.25 5.69773 23.3543 5.24456 24.7187 3.92058C25.2071 3.44668 25.6224 3.07568 25.6417 3.09614C25.661 3.11659 25.784 3.5424 25.9152 4.0424C26.2674 5.38538 26.6063 6.01355 27.4155 6.82372C28.86 8.27015 30.5151 8.66178 32.7486 8.08597C33.3343 7.93497 33.8288 7.8267 33.8475 7.84534C33.8662 7.86407 33.7579 8.3586 33.6069 8.94423C33.4332 9.61768 33.3328 10.2324 33.3337 10.6167C33.3368 12.0115 33.8855 13.2903 34.9206 14.315C35.6999 15.0863 36.3751 15.4377 37.7314 15.7775L38.7129 16.0235L37.9089 16.8197C36.6212 18.0952 36.1595 19.0358 36.0819 20.5422C35.997 22.1904 36.4502 23.2932 37.7723 24.6556C38.2462 25.144 38.6172 25.5598 38.5967 25.5797C38.5763 25.5996 38.1505 25.7263 37.6505 25.8612C36.3338 26.2166 35.6765 26.5666 34.9206 27.3148C33.8855 28.3394 33.3368 29.6183 33.3337 31.0131C33.3328 31.3974 33.4332 32.0121 33.6069 32.6855C33.7579 33.2711 33.8662 33.7657 33.8475 33.7844C33.8288 33.803 33.3343 33.6948 32.7486 33.5438C32.0752 33.3701 31.4605 33.2697 31.0762 33.2706C29.6814 33.2737 28.4025 33.8224 27.3779 34.8575C26.6065 35.6367 26.2552 36.312 25.9154 37.6683L25.6694 38.6498L24.8731 37.8458C23.5977 36.5581 22.657 36.0964 21.1506 36.0188C19.5025 35.9339 18.3997 36.3871 17.0372 37.7092C16.5489 38.1831 16.1336 38.5541 16.1142 38.5336C16.095 38.5132 15.972 38.0873 15.8408 37.5873C15.4874 36.2402 15.1499 35.6156 14.3404 34.811C12.8779 33.3573 11.2399 32.9681 9.00734 33.5438C8.42171 33.6948 7.92472 33.8006 7.903 33.7789C7.88136 33.7572 7.97381 33.337 8.10845 32.8452C8.57708 31.1338 8.49199 29.8995 7.81645 28.614C7.40918 27.8389 6.8351 27.1885 6.14439 26.7194C5.51367 26.2912 5.01604 26.0892 3.89878 25.8086L3.0557 25.5968L3.85333 24.8043C5.13704 23.5288 5.59658 22.5907 5.67403 21.0875C5.75894 19.4393 5.30576 18.3365 3.98369 16.9741C3.50979 16.4858 3.13879 16.0705 3.15925 16.0511C3.1797 16.0319 3.60551 15.9089 4.10551 15.7777C5.44849 15.4254 6.07666 15.0866 6.88683 14.2773C8.33326 12.8328 8.72489 11.1777 8.14908 8.94423C7.99808 8.3586 7.88981 7.86407 7.90845 7.84534C7.92718 7.8267 8.42171 7.93497 9.00734 8.08597C10.2094 8.39588 10.9724 8.43206 11.866 8.22133C12.8377 7.99234 13.5767 7.57098 14.3326 6.81508C15.1521 5.99564 15.4922 5.35229 15.8404 3.96249L16.0861 2.98196L16.8866 3.78322C17.3269 4.22394 17.9284 4.73048 18.2234 4.90893ZM9.46497 18.129L9.24179 18.3521V21.5421V24.7322L9.46497 24.9553C9.73579 25.2261 10.1374 25.2466 10.4362 25.0048C10.6471 24.8343 10.6517 24.7967 10.6963 22.8518L10.7418 20.8722L12.3143 22.9718C13.1793 24.1266 13.9496 25.0955 14.0263 25.125C14.3143 25.2354 14.6208 25.1713 14.8367 24.9553L15.0599 24.7322V21.5421V18.3521L14.8367 18.129C14.5659 17.8582 14.1643 17.8376 13.8655 18.0795C13.6545 18.25 13.65 18.2875 13.6054 20.2325L13.5599 22.212L11.9874 20.1124C11.1224 18.9576 10.352 17.9887 10.2754 17.9593C9.98742 17.8488 9.68088 17.913 9.46497 18.129ZM18.1921 18.129L17.9689 18.3521V21.5421V24.7322L18.1921 24.9553L18.4152 25.1784H20.878H23.3408L23.5639 24.9553C23.8591 24.6601 23.8591 24.2423 23.5639 23.9471C23.3408 23.7239 23.3405 23.7239 21.3821 23.7239H19.4235V22.9967V22.2694H20.6548C21.8411 22.2694 21.8944 22.2612 22.1093 22.0462C22.4046 21.751 22.4046 21.3332 22.1093 21.038C21.8944 20.8231 21.8411 20.8149 20.6548 20.8149H19.4235V20.0876V19.3603H21.3821C23.3405 19.3603 23.3408 19.3603 23.5639 19.1372C23.7046 18.9965 23.787 18.8102 23.787 18.6331C23.787 18.456 23.7046 18.2696 23.5639 18.129L23.3408 17.9058H20.878H18.4152L18.1921 18.129ZM25.4647 18.129C25.342 18.2517 25.2416 18.4495 25.2416 18.5687C25.2416 18.9569 27.4876 24.8452 27.7021 25.0194C27.9684 25.2356 28.2757 25.2193 28.5559 24.9739C28.7437 24.8094 28.877 24.4518 29.2373 23.146C29.4837 22.2531 29.7026 21.5052 29.7239 21.484C29.745 21.4628 29.9138 21.9888 30.0987 22.6528C30.2836 23.3169 30.497 24.0766 30.5729 24.3409C30.7331 24.8989 30.9906 25.1784 31.3445 25.1784C31.8793 25.1784 31.9867 24.9594 33.0083 21.7849C33.5365 20.1434 33.9687 18.6995 33.9687 18.5763C33.9687 18.259 33.5856 17.9058 33.2414 17.9058C32.758 17.9058 32.6015 18.1806 32.0146 20.0608C31.7149 21.0211 31.4425 21.7779 31.4094 21.7426C31.3762 21.7073 31.1415 20.9251 30.8877 20.0042C30.3941 18.2128 30.2315 17.9058 29.7761 17.9058C29.2619 17.9058 29.1088 18.1838 28.5987 20.0422C28.338 20.9921 28.0955 21.8252 28.06 21.8936C28.0211 21.9679 27.7105 21.2464 27.2843 20.0922C26.8152 18.8213 26.5102 18.1223 26.3873 18.0363C26.1036 17.8376 25.7173 17.8764 25.4647 18.129Z" fill="black"/>
</svg>
