<svg width="24" height="24" viewBox="0 0 24 24" fill="none" xmlns="http://www.w3.org/2000/svg">
<path d="M20.34 9.31988L6.34 2.31988C5.78749 2.04489 5.16362 1.94699 4.55344 2.03954C3.94326 2.13208 3.37646 2.41055 2.93033 2.837C2.48421 3.26345 2.18046 3.81711 2.0605 4.42249C1.94054 5.02788 2.0102 5.65554 2.26 6.21988L4.66 11.5899C4.71446 11.7197 4.74251 11.8591 4.74251 11.9999C4.74251 12.1407 4.71446 12.2801 4.66 12.4099L2.26 17.7799C2.0567 18.2366 1.97076 18.7369 2.00998 19.2353C2.0492 19.7336 2.21235 20.2143 2.48459 20.6336C2.75682 21.0529 3.12953 21.3975 3.56883 21.6361C4.00812 21.8747 4.50009 21.9998 5 21.9999C5.46823 21.9952 5.92949 21.8859 6.35 21.6799L20.35 14.6799C20.8466 14.4301 21.264 14.0472 21.5557 13.574C21.8474 13.1007 22.0018 12.5558 22.0018 11.9999C22.0018 11.444 21.8474 10.899 21.5557 10.4258C21.264 9.95258 20.8466 9.5697 20.35 9.31988H20.34ZM19.45 12.8899L5.45 19.8899C5.26617 19.9782 5.05973 20.0081 4.85839 19.9757C4.65705 19.9434 4.47041 19.8502 4.32352 19.7087C4.17662 19.5673 4.07648 19.3843 4.03653 19.1843C3.99658 18.9843 4.01873 18.7769 4.1 18.5899L6.49 13.2199C6.52094 13.1482 6.54766 13.0747 6.57 12.9999H13.46C13.7252 12.9999 13.9796 12.8945 14.1671 12.707C14.3546 12.5195 14.46 12.2651 14.46 11.9999C14.46 11.7347 14.3546 11.4803 14.1671 11.2928C13.9796 11.1052 13.7252 10.9999 13.46 10.9999H6.57C6.54766 10.9251 6.52094 10.8516 6.49 10.7799L4.1 5.40988C4.01873 5.22285 3.99658 5.01543 4.03653 4.81545C4.07648 4.61547 4.17662 4.43249 4.32352 4.29103C4.47041 4.14958 4.65705 4.05641 4.85839 4.02404C5.05973 3.99166 5.26617 4.02161 5.45 4.10988L19.45 11.1099C19.6138 11.1938 19.7513 11.3213 19.8473 11.4783C19.9433 11.6354 19.994 11.8158 19.994 11.9999C19.994 12.1839 19.9433 12.3644 19.8473 12.5214C19.7513 12.6785 19.6138 12.806 19.45 12.8899Z" fill="#46587A"/>
</svg>
