<svg width="24" height="25" viewBox="0 0 24 25" fill="none" xmlns="http://www.w3.org/2000/svg">
<path d="M17.7099 11.6078L12.7099 6.60777C12.6148 6.51673 12.5027 6.44536 12.3799 6.39777C12.1365 6.29775 11.8634 6.29775 11.6199 6.39777C11.4972 6.44536 11.385 6.51673 11.2899 6.60777L6.28994 11.6078C6.1967 11.701 6.12274 11.8117 6.07228 11.9335C6.02182 12.0553 5.99585 12.1859 5.99585 12.3178C5.99585 12.5841 6.10164 12.8395 6.28994 13.0278C6.47825 13.2161 6.73364 13.3219 6.99994 13.3219C7.26624 13.3219 7.52164 13.2161 7.70994 13.0278L10.9999 9.72777V17.3178C10.9999 17.583 11.1053 17.8373 11.2928 18.0249C11.4804 18.2124 11.7347 18.3178 11.9999 18.3178C12.2652 18.3178 12.5195 18.2124 12.707 18.0249C12.8946 17.8373 12.9999 17.583 12.9999 17.3178V9.72777L16.2899 13.0278C16.3829 13.1215 16.4935 13.1959 16.6154 13.2467C16.7372 13.2974 16.8679 13.3236 16.9999 13.3236C17.132 13.3236 17.2627 13.2974 17.3845 13.2467C17.5064 13.1959 17.617 13.1215 17.7099 13.0278C17.8037 12.9348 17.8781 12.8242 17.9288 12.7023C17.9796 12.5805 18.0057 12.4498 18.0057 12.3178C18.0057 12.1858 17.9796 12.055 17.9288 11.9332C17.8781 11.8113 17.8037 11.7007 17.7099 11.6078Z" fill="#46587A"/>
</svg>
