<svg width="25" height="24" viewBox="0 0 25 24" fill="none" xmlns="http://www.w3.org/2000/svg">
<path d="M10.3803 14.12L10.2303 14L10.0503 13.9L9.87032 13.85C9.70967 13.8179 9.54357 13.8256 9.38664 13.8727C9.2297 13.9198 9.08674 14.0047 8.97032 14.12C8.8714 14.2106 8.79591 14.3239 8.75032 14.45C8.69742 14.5697 8.67009 14.6991 8.67009 14.83C8.67009 14.9609 8.69742 15.0903 8.75032 15.21C8.85778 15.4503 9.05003 15.6426 9.29032 15.75C9.41055 15.8013 9.53965 15.8284 9.67032 15.83C9.80413 15.8275 9.93634 15.8004 10.0603 15.75C10.1822 15.7017 10.2916 15.6265 10.3803 15.53C10.4739 15.4388 10.5486 15.33 10.6003 15.21C10.6481 15.0891 10.6719 14.96 10.6703 14.83C10.6737 14.6988 10.6463 14.5687 10.5903 14.45C10.5445 14.3264 10.4729 14.2139 10.3803 14.12ZM4.01032 8.76002C4.14263 8.75947 4.27351 8.73267 4.39539 8.68117C4.51726 8.62968 4.62771 8.55451 4.72032 8.46002L8.96032 4.22002C9.14658 4.03266 9.25112 3.7792 9.25112 3.51502C9.25112 3.25083 9.14658 2.99738 8.96032 2.81002C8.77296 2.62377 8.51951 2.51923 8.25532 2.51923C7.99114 2.51923 7.73769 2.62377 7.55032 2.81002L3.31032 7.05002C3.12407 7.23738 3.01953 7.49083 3.01953 7.75502C3.01953 8.01921 3.12407 8.27266 3.31032 8.46002C3.49495 8.64843 3.74655 8.75626 4.01032 8.76002ZM21.6903 15.54C21.503 15.3538 21.2495 15.2492 20.9853 15.2492C20.7211 15.2492 20.4677 15.3538 20.2803 15.54L16.0403 19.78C15.8999 19.9193 15.8039 20.0971 15.7645 20.2909C15.7252 20.4847 15.7441 20.6858 15.8191 20.8689C15.894 21.0519 16.0215 21.2086 16.1855 21.3192C16.3495 21.4297 16.5426 21.4892 16.7403 21.49C16.8726 21.4895 17.0035 21.4627 17.1254 21.4112C17.2473 21.3597 17.3577 21.2845 17.4503 21.19L21.6903 17C21.7902 16.9065 21.8699 16.7934 21.9243 16.6679C21.9788 16.5423 22.0069 16.4069 22.0069 16.27C22.0069 16.1332 21.9788 15.9977 21.9243 15.8722C21.8699 15.7466 21.7902 15.6336 21.6903 15.54ZM21.8603 9.88002C21.8623 9.08607 21.5494 8.32372 20.9903 7.76002L16.7403 3.51002C16.168 2.96701 15.4092 2.6643 14.6203 2.6643C13.8314 2.6643 13.0726 2.96701 12.5003 3.51002L4.01032 12C3.44852 12.5625 3.13296 13.325 3.13296 14.12C3.13296 14.915 3.44852 15.6775 4.01032 16.24L8.26032 20.49C8.82283 21.0518 9.58532 21.3674 10.3803 21.3674C11.1753 21.3674 11.9378 21.0518 12.5003 20.49L20.9903 12C21.5494 11.4363 21.8623 10.674 21.8603 9.88002ZM19.5703 10.59L11.0903 19.07C10.9974 19.1637 10.8868 19.2381 10.7649 19.2889C10.643 19.3397 10.5123 19.3658 10.3803 19.3658C10.2483 19.3658 10.1176 19.3397 9.99575 19.2889C9.87389 19.2381 9.76329 19.1637 9.67032 19.07L5.43032 14.83C5.3366 14.7371 5.2622 14.6265 5.21143 14.5046C5.16066 14.3827 5.13453 14.252 5.13453 14.12C5.13453 13.988 5.16066 13.8573 5.21143 13.7354C5.2622 13.6136 5.3366 13.503 5.43032 13.41L13.9103 4.93002C14.0033 4.83629 14.1139 4.7619 14.2357 4.71113C14.3576 4.66036 14.4883 4.63422 14.6203 4.63422C14.7523 4.63422 14.883 4.66036 15.0049 4.71113C15.1268 4.7619 15.2374 4.83629 15.3303 4.93002L19.5703 9.17002C19.6641 9.26298 19.7384 9.37358 19.7892 9.49544C19.84 9.6173 19.8661 9.74801 19.8661 9.88002C19.8661 10.012 19.84 10.1427 19.7892 10.2646C19.7384 10.3865 19.6641 10.4971 19.5703 10.59Z" fill="#46587A"/>
</svg>
