<svg width="21" height="16" viewBox="0 0 21 16" fill="none" xmlns="http://www.w3.org/2000/svg">
<path d="M17.5 0H3.5C2.70435 0 1.94129 0.316071 1.37868 0.87868C0.816071 1.44129 0.5 2.20435 0.5 3V13C0.5 13.7956 0.816071 14.5587 1.37868 15.1213C1.94129 15.6839 2.70435 16 3.5 16H17.5C18.2956 16 19.0587 15.6839 19.6213 15.1213C20.1839 14.5587 20.5 13.7956 20.5 13V3C20.5 2.20435 20.1839 1.44129 19.6213 0.87868C19.0587 0.316071 18.2956 0 17.5 0ZM3.5 2H17.5C17.7652 2 18.0196 2.10536 18.2071 2.29289C18.3946 2.48043 18.5 2.73478 18.5 3L10.5 7.88L2.5 3C2.5 2.73478 2.60536 2.48043 2.79289 2.29289C2.98043 2.10536 3.23478 2 3.5 2ZM18.5 13C18.5 13.2652 18.3946 13.5196 18.2071 13.7071C18.0196 13.8946 17.7652 14 17.5 14H3.5C3.23478 14 2.98043 13.8946 2.79289 13.7071C2.60536 13.5196 2.5 13.2652 2.5 13V5.28L9.98 9.85C10.132 9.93777 10.3045 9.98397 10.48 9.98397C10.6555 9.98397 10.828 9.93777 10.98 9.85L18.5 5.28V13Z" fill="#46587A"/>
</svg>
