<svg width="25" height="24" viewBox="0 0 25 24" fill="none" xmlns="http://www.w3.org/2000/svg">
<path d="M21.5 16H7.5C7.23478 16 6.98043 15.8946 6.79289 15.7071C6.60536 15.5196 6.5 15.2652 6.5 15C6.5 14.7348 6.60536 14.4804 6.79289 14.2929C6.98043 14.1054 7.23478 14 7.5 14H17.94C18.6087 14 19.2582 13.7767 19.7854 13.3654C20.3126 12.9542 20.6873 12.3786 20.85 11.73L22.5 5.24C22.5375 5.09241 22.5407 4.93821 22.5095 4.78917C22.4783 4.64013 22.4135 4.50018 22.32 4.38C22.2227 4.25673 22.0978 4.1581 21.9554 4.09208C21.8129 4.02606 21.6569 3.99452 21.5 4H7.26C7.05369 3.41645 6.67193 2.911 6.16707 2.55294C5.6622 2.19488 5.05894 2.00174 4.44 2H3.5C3.23478 2 2.98043 2.10536 2.79289 2.29289C2.60536 2.48043 2.5 2.73478 2.5 3C2.5 3.26522 2.60536 3.51957 2.79289 3.70711C2.98043 3.89464 3.23478 4 3.5 4H4.44C4.66843 3.99334 4.89226 4.06513 5.07421 4.20341C5.25615 4.34169 5.38525 4.53812 5.44 4.76L5.5 5.24L7.23 12C6.43435 12.0358 5.68551 12.3862 5.14822 12.9741C4.61093 13.5621 4.3292 14.3394 4.365 15.135C4.4008 15.9306 4.75121 16.6795 5.33914 17.2168C5.92707 17.7541 6.70435 18.0358 7.5 18H7.68C7.51554 18.4531 7.46269 18.9392 7.52593 19.4171C7.58917 19.895 7.76665 20.3506 8.04332 20.7454C8.31999 21.1401 8.68772 21.4624 9.11535 21.6849C9.54299 21.9074 10.0179 22.0235 10.5 22.0235C10.9821 22.0235 11.457 21.9074 11.8846 21.6849C12.3123 21.4624 12.68 21.1401 12.9567 20.7454C13.2334 20.3506 13.4108 19.895 13.4741 19.4171C13.5373 18.9392 13.4845 18.4531 13.32 18H15.68C15.5155 18.4531 15.4627 18.9392 15.5259 19.4171C15.5892 19.895 15.7666 20.3506 16.0433 20.7454C16.32 21.1401 16.6877 21.4624 17.1154 21.6849C17.543 21.9074 18.0179 22.0235 18.5 22.0235C18.9821 22.0235 19.457 21.9074 19.8846 21.6849C20.3123 21.4624 20.68 21.1401 20.9567 20.7454C21.2334 20.3506 21.4108 19.895 21.4741 19.4171C21.5373 18.9392 21.4845 18.4531 21.32 18H21.5C21.7652 18 22.0196 17.8946 22.2071 17.7071C22.3946 17.5196 22.5 17.2652 22.5 17C22.5 16.7348 22.3946 16.4804 22.2071 16.2929C22.0196 16.1054 21.7652 16 21.5 16ZM20.22 6L18.91 11.24C18.8552 11.4619 18.7262 11.6583 18.5442 11.7966C18.3623 11.9349 18.1384 12.0067 17.91 12H9.28L7.78 6H20.22ZM10.5 20C10.3022 20 10.1089 19.9414 9.94443 19.8315C9.77998 19.7216 9.65181 19.5654 9.57612 19.3827C9.50043 19.2 9.48063 18.9989 9.51921 18.8049C9.5578 18.6109 9.65304 18.4327 9.79289 18.2929C9.93275 18.153 10.1109 18.0578 10.3049 18.0192C10.4989 17.9806 10.7 18.0004 10.8827 18.0761C11.0654 18.1518 11.2216 18.28 11.3315 18.4444C11.4414 18.6089 11.5 18.8022 11.5 19C11.5 19.2652 11.3946 19.5196 11.2071 19.7071C11.0196 19.8946 10.7652 20 10.5 20ZM18.5 20C18.3022 20 18.1089 19.9414 17.9444 19.8315C17.78 19.7216 17.6518 19.5654 17.5761 19.3827C17.5004 19.2 17.4806 18.9989 17.5192 18.8049C17.5578 18.6109 17.653 18.4327 17.7929 18.2929C17.9327 18.153 18.1109 18.0578 18.3049 18.0192C18.4989 17.9806 18.7 18.0004 18.8827 18.0761C19.0654 18.1518 19.2216 18.28 19.3315 18.4444C19.4414 18.6089 19.5 18.8022 19.5 19C19.5 19.2652 19.3946 19.5196 19.2071 19.7071C19.0196 19.8946 18.7652 20 18.5 20Z" fill="white"/>
</svg>
