<svg width="122" height="32" viewBox="0 0 122 32" fill="none" xmlns="http://www.w3.org/2000/svg">
<g clip-path="url(#clip0_239_10470)">
<path d="M80.6027 15.0787C80.5314 14.6629 80.3989 14.2777 80.2073 13.9312C80.0463 13.6397 79.8404 13.3707 79.5938 13.1281C79.498 13.0344 79.2636 12.8367 79.2534 12.8285C77.6677 11.5179 75.0771 11.4262 73.3691 12.6145C73.3181 12.6492 73.1856 12.7551 73.0633 12.855C72.9675 12.7816 72.8412 12.6858 72.8391 12.6858C71.4246 11.6402 69.4027 11.4833 67.7945 12.2925H65.5036V23.4313H68.4427V15.6086C68.4407 15.3885 68.563 15.1888 68.8422 14.9646C69.5168 14.4163 70.5869 14.4163 71.2656 14.9768C71.4124 15.0767 71.6284 15.3865 71.6305 15.6453V23.4293H74.5696V15.6616C74.5696 15.3131 74.9691 14.9686 75.0852 14.879C75.7721 14.4163 76.7362 14.4509 77.3721 14.9605C77.3864 14.9707 77.7309 15.2214 77.7329 15.6698L77.7349 20.4657L77.737 23.4293H80.6761V15.9613C80.67 15.9409 80.6557 15.3885 80.6027 15.0787ZM61.1561 12.1416C59.2279 11.52 56.4152 11.5852 54.6134 12.2334L54.4748 12.2782L55.3329 14.9788L55.4715 14.934C56.7719 14.4224 58.8937 14.4081 60.0024 14.7811C60.3673 14.9034 60.4712 15.0848 60.4712 15.3294V16.3791C59.0751 16.1162 57.4445 16.1304 56.0626 16.4219L55.9607 16.4484C55.496 16.587 54.9151 16.7582 54.3464 17.2453L54.2323 17.3554C52.8177 18.88 52.8361 21.0792 54.2751 22.5855C55.1535 23.4232 56.5599 23.7024 58.3454 23.7024C59.4175 23.7024 59.9821 23.5821 60.6934 23.4334H63.3044V15.3029C63.3044 13.6499 62.3892 12.5167 61.1561 12.1416ZM60.4712 20.8204C59.2809 21.3605 57.4241 21.3075 56.6496 20.9508C56.2929 20.7857 55.8995 20.48 55.8995 19.9562C55.8995 19.4711 56.1584 19.1531 56.6883 18.9615C57.846 18.6395 59.3237 18.6721 60.4712 19.1266V20.8204ZM51.2483 19.893C50.1477 20.5207 48.7698 20.6716 47.7752 20.6818C45.2009 20.6553 43.1056 18.56 43.1056 16.0122C43.1056 13.4379 45.2009 11.3427 47.7752 11.3427C49.95 11.3427 51.3665 12.1233 51.3665 12.1233L52.296 9.27183C52.296 9.27183 51.0628 8.32406 47.7752 8.32406C43.5357 8.32406 40.087 11.7727 40.087 16.0122C40.087 20.2517 43.5357 23.7004 47.7752 23.7004C50.5125 23.6983 52.5161 22.6018 52.5161 22.6018L51.4256 19.789L51.2483 19.893ZM112.521 16.7072C112.44 15.9185 112.215 15.201 112.207 15.1765C112.003 14.4204 111.563 13.7294 110.935 13.1791C110.925 13.1709 110.691 12.9692 110.509 12.855C108.455 11.4568 105.593 11.5852 103.706 13.1607C103.145 13.6153 102.758 14.3511 102.444 15.1725C102.085 16.1182 101.784 18.7292 102.434 20.4331C102.636 21.1485 103.064 21.7987 103.72 22.3714C103.747 22.3918 104.362 22.8565 104.733 23.0278C105.93 23.5821 107.307 23.7004 108.251 23.7004C109.195 23.7004 110.155 23.5883 110.956 23.3824L111.096 23.3457L110.408 20.6553L110.267 20.692C109.103 20.9895 106.943 21.1078 105.787 20.4413C105.579 20.3088 105.473 20.2171 105.373 20.0785C105.273 19.9419 105.198 19.7931 105.147 19.626C105.147 19.6239 105.098 19.4976 105.069 19.3549L112.411 19.3671C112.411 19.3671 112.648 18.0627 112.525 16.7174L112.521 16.7072ZM104.998 16.5768C105.037 16.269 105.131 15.8308 105.257 15.5944C105.328 15.4639 105.455 15.3233 105.534 15.2581C106.472 14.5162 107.982 14.4795 108.971 15.1684C109.207 15.3457 109.441 15.6678 109.505 15.9001L109.523 15.9714C109.578 16.1814 109.613 16.3709 109.645 16.5788H104.998V16.5768ZM92.6812 16.7072C92.5996 15.9185 92.3754 15.201 92.3673 15.1765C92.1635 14.4204 91.7232 13.7294 91.0934 13.1791C91.0832 13.1709 90.8488 12.9692 90.6674 12.855C88.6129 11.4568 85.7512 11.5852 83.8638 13.1607C83.3033 13.6153 82.9161 14.3511 82.6022 15.1725C82.2435 16.1182 81.9418 18.7292 82.592 20.4331C82.7938 21.1485 83.2218 21.7987 83.8781 22.3714C83.9046 22.3918 84.5201 22.8565 84.8911 23.0278C86.0875 23.5821 87.4654 23.7004 88.4091 23.7004C89.3528 23.7004 90.3128 23.5883 91.1138 23.3824L91.2544 23.3457L90.5655 20.6553L90.4249 20.692C89.261 20.9895 87.1005 21.1078 85.9449 20.4413C85.737 20.3088 85.631 20.2171 85.5311 20.0785C85.4312 19.9419 85.3558 19.7931 85.3049 19.626C85.3049 19.6239 85.2559 19.4976 85.2274 19.3549L92.5691 19.3671C92.5691 19.3671 92.8055 18.0627 92.6832 16.7174L92.6812 16.7072ZM85.1581 16.5768C85.1968 16.269 85.2906 15.8308 85.417 15.5944C85.4883 15.4639 85.6147 15.3233 85.6942 15.2581C86.6317 14.5162 88.1421 14.4795 89.1306 15.1684C89.367 15.3457 89.6014 15.6678 89.6646 15.9001L89.683 15.9714C89.738 16.1814 89.7726 16.3709 89.8052 16.5788H85.1581V16.5768ZM97.8501 20.4433C97.6402 20.3108 97.5342 20.2171 97.4323 20.0764C97.2733 19.8278 97.1326 19.414 97.1326 18.827V15.0848H101.168V12.3067H97.1326V8.32202H94.1935V18.882C94.1935 21.8823 96.4131 22.881 96.7882 23.0542C97.9948 23.6148 100.135 23.7799 101.211 23.6718L100.873 20.8917C99.66 20.9753 98.6165 20.8856 97.8501 20.4433ZM120.623 20.8897C119.412 20.9773 118.369 20.8856 117.602 20.4433C117.393 20.3108 117.287 20.2171 117.185 20.0764C117.026 19.8278 116.885 19.414 116.885 18.827V15.0848H120.921V12.3067H116.885V8.32202H113.946V18.882C113.946 21.8823 116.165 22.881 116.541 23.0542C117.747 23.6148 119.887 23.7799 120.963 23.6718L120.623 20.8897Z" fill="black"/>
<path d="M27.9756 4.13788C25.4237 1.58603 22.0321 0.181702 18.4245 0.181702C14.9024 0.181702 11.5679 1.52896 9.03646 3.97482L8.91825 4.08692L8.89786 4.10527L8.86525 4.13788L1.7743 11.2288L0.27417 12.729L1.7743 14.2291L5.07825 17.533C4.64207 21.7012 4.53404 25.2436 4.52997 25.4046L4.46474 27.6528L6.71289 27.5876C6.87391 27.5835 10.4163 27.4755 14.5824 27.0393L17.8864 30.3432L19.3865 31.8434L20.8867 30.3432L27.9165 23.3134L27.9287 23.3012L27.9409 23.289L28.1346 23.0872C30.611 20.5272 31.9603 17.1539 31.9338 13.5911C31.9053 10.0181 30.5009 6.66323 27.9756 4.13788Z" fill="white"/>
<path d="M26.4754 5.63798C22.0708 1.23339 14.9615 1.19263 10.5019 5.50549L10.3633 5.63594L3.27234 12.7269L7.29578 16.7503C6.76992 21.3078 6.64762 25.4637 6.64762 25.4637C6.64762 25.4637 10.8035 25.3414 15.361 24.8156L19.3844 28.839L26.4142 21.8092L26.6079 21.6074C30.9228 17.1519 30.88 10.0426 26.4754 5.63798Z" fill="#ED1C24"/>
<path d="M22.1177 13.6951C22.1177 14.6408 21.7569 15.5866 21.0354 16.3101C19.5924 17.7532 17.2505 17.7532 15.8074 16.3101C14.3643 14.8671 14.3643 12.5252 15.8074 11.0821C16.5289 10.3606 17.4747 9.99982 18.4224 9.99982V6.12109C16.4841 6.12109 14.5457 6.86097 13.066 8.33867C10.1085 11.2961 10.1085 16.092 13.066 19.0495C16.0234 22.007 20.8194 22.007 23.7768 19.0495C25.2566 17.5698 25.9944 15.6314 25.9944 13.6931H22.1177V13.6951Z" fill="white"/>
</g>
<defs>
<clipPath id="clip0_239_10470">
<rect width="121.682" height="32" fill="white" transform="translate(0.15918)"/>
</clipPath>
</defs>
</svg>
