<svg width="40" height="40" viewBox="0 0 40 40" fill="none" xmlns="http://www.w3.org/2000/svg">
<path d="M34.9505 5.15669C31.7607 1.96688 27.5212 0.211464 23.0116 0.211464C18.6091 0.211464 14.4409 1.89554 11.2766 4.95287L11.1288 5.09299L11.1033 5.11592L11.0626 5.15669L2.19889 14.0204L0.32373 15.8955L2.19889 17.7707L6.32883 21.9006C5.78361 27.1108 5.64857 31.5389 5.64348 31.7401L5.56195 34.5503L8.37214 34.4688C8.57341 34.4637 13.0014 34.3287 18.2091 33.7834L22.339 37.9134L24.2142 39.7885L26.0893 37.9134L34.8766 29.1261L34.8919 29.1108L34.9072 29.0955L35.1492 28.8433C38.2448 25.6433 39.9314 21.4268 39.8983 16.9732C39.8626 12.507 38.1072 8.31337 34.9505 5.15669Z" fill="white"/>
<path d="M33.0754 7.03185C27.5696 1.52611 18.683 1.47516 13.1085 6.86624L12.9352 7.0293L4.07153 15.893L9.10083 20.9223C8.44351 26.6191 8.29064 31.814 8.29064 31.814C8.29064 31.814 13.4855 31.6611 19.1824 31.0038L24.2117 36.0331L32.9989 27.2459L33.241 26.9936C38.6346 21.4242 38.5811 12.5376 33.0754 7.03185Z" fill="#46587A"/>
<path d="M27.6282 17.1032C27.6282 18.2853 27.1773 19.4675 26.2754 20.372C24.4715 22.1758 21.5441 22.1758 19.7403 20.372C17.9365 18.5681 17.9365 15.6408 19.7403 13.8369C20.6422 12.935 21.8244 12.4841 23.0091 12.4841V7.63567C20.5862 7.63567 18.1632 8.56051 16.3136 10.4076C12.6168 14.1045 12.6168 20.0994 16.3136 23.7962C20.0104 27.493 26.0053 27.493 29.7021 23.7962C31.5518 21.9465 32.4741 19.5236 32.4741 17.1006H27.6282V17.1032Z" fill="white"/>
</svg>
