<svg width="213" height="57" viewBox="0 0 213 57" fill="none" xmlns="http://www.w3.org/2000/svg">
<g clip-path="url(#clip0_239_12936)">
<path d="M140.776 26.7055C140.651 25.9779 140.419 25.3038 140.084 24.6974C139.802 24.1873 139.442 23.7165 139.01 23.292C138.843 23.128 138.433 22.782 138.415 22.7677C135.64 20.4742 131.106 20.3137 128.117 22.3932C128.028 22.4538 127.796 22.6393 127.582 22.8141C127.415 22.6857 127.193 22.518 127.19 22.518C124.714 20.6882 121.176 20.4136 118.362 21.8296H114.353V41.3226H119.496V27.6329C119.493 27.2477 119.707 26.8982 120.195 26.5058C121.376 25.5463 123.248 25.5463 124.436 26.5272C124.693 26.702 125.071 27.2441 125.075 27.6971V41.3191H130.218V27.7257C130.218 27.1157 130.917 26.5129 131.121 26.356C132.323 25.5463 134.01 25.6069 135.123 26.4987C135.148 26.5165 135.75 26.9552 135.754 27.7399L135.757 36.1328L135.761 41.3191H140.904V28.25C140.894 28.2143 140.869 27.2477 140.776 26.7055ZM106.744 21.5657C103.37 20.4778 98.4479 20.5919 95.2948 21.7262L95.0523 21.8047L96.5539 26.5308L96.7965 26.4523C99.0721 25.557 102.785 25.532 104.726 26.1848C105.364 26.3988 105.546 26.7162 105.546 27.1443V28.9812C103.103 28.5211 100.249 28.5461 97.8309 29.0561L97.6525 29.1025C96.8393 29.345 95.8227 29.6447 94.8275 30.4971L94.6278 30.6898C92.1524 33.3578 92.1845 37.2064 94.7027 39.8424C96.24 41.3084 98.7012 41.797 101.826 41.797C103.702 41.797 104.69 41.5866 105.935 41.3262H110.504V27.0979C110.504 24.2052 108.902 22.222 106.744 21.5657ZM105.546 36.7534C103.463 37.6987 100.214 37.6059 98.8581 36.9817C98.2339 36.6928 97.5455 36.1578 97.5455 35.2411C97.5455 34.3922 97.9985 33.8357 98.9259 33.5005C100.952 32.9369 103.538 32.994 105.546 33.7894V36.7534ZM89.4059 35.1305C87.4798 36.2291 85.0686 36.4931 83.3279 36.5109C78.823 36.4645 75.1562 32.7978 75.1562 28.3392C75.1562 23.8342 78.823 20.1675 83.3279 20.1675C87.1338 20.1675 89.6128 21.5336 89.6128 21.5336L91.2393 16.5435C91.2393 16.5435 89.0813 14.8849 83.3279 14.8849C75.9088 14.8849 69.8737 20.9201 69.8737 28.3392C69.8737 35.7583 75.9088 41.7934 83.3279 41.7934C88.1182 41.7899 91.6245 39.8709 91.6245 39.8709L89.7162 34.9486L89.4059 35.1305ZM196.633 29.5555C196.491 28.1751 196.098 26.9196 196.084 26.8768C195.727 25.5534 194.957 24.3443 193.858 23.3812C193.841 23.367 193.43 23.0138 193.113 22.8141C189.517 20.3672 184.51 20.5919 181.207 23.3491C180.226 24.1445 179.548 25.4322 178.999 26.8696C178.371 28.5247 177.843 33.0938 178.981 36.0757C179.334 37.3277 180.083 38.4655 181.232 39.4678C181.278 39.5035 182.355 40.3168 183.004 40.6164C185.098 41.5866 187.509 41.7934 189.161 41.7934C190.812 41.7934 192.492 41.5973 193.894 41.237L194.14 41.1728L192.935 36.4645L192.688 36.5287C190.652 37.0495 186.871 37.2564 184.848 36.09C184.485 35.8582 184.299 35.6977 184.124 35.4551C183.95 35.2161 183.818 34.9557 183.728 34.6633C183.728 34.6597 183.643 34.4385 183.593 34.1889L196.441 34.2103C196.441 34.2103 196.855 31.9275 196.641 29.5733L196.633 29.5555ZM183.468 29.3272C183.536 28.7886 183.7 28.0217 183.921 27.608C184.046 27.3797 184.267 27.1336 184.406 27.0194C186.047 25.7211 188.69 25.6569 190.42 26.8625C190.834 27.1728 191.244 27.7364 191.354 28.143L191.387 28.2678C191.483 28.6352 191.543 28.967 191.601 29.3308H183.468V29.3272ZM161.913 29.5555C161.771 28.1751 161.378 26.9196 161.364 26.8768C161.007 25.5534 160.237 24.3443 159.135 23.3812C159.117 23.367 158.707 23.0138 158.389 22.8141C154.794 20.3672 149.786 20.5919 146.483 23.3491C145.502 24.1445 144.824 25.4322 144.275 26.8696C143.647 28.5247 143.12 33.0938 144.257 36.0757C144.61 37.3277 145.36 38.4655 146.508 39.4678C146.554 39.5035 147.632 40.3168 148.281 40.6164C150.375 41.5866 152.786 41.7934 154.437 41.7934C156.089 41.7934 157.769 41.5973 159.17 41.237L159.417 41.1728L158.211 36.4645L157.965 36.5287C155.928 37.0495 152.147 37.2564 150.125 36.09C149.761 35.8582 149.576 35.6977 149.401 35.4551C149.226 35.2161 149.094 34.9557 149.005 34.6633C149.005 34.6597 148.919 34.4385 148.869 34.1889L161.717 34.2103C161.717 34.2103 162.131 31.9275 161.917 29.5733L161.913 29.5555ZM148.748 29.3272C148.816 28.7886 148.98 28.0217 149.201 27.608C149.326 27.3797 149.547 27.1336 149.686 27.0194C151.327 25.7211 153.97 25.6569 155.7 26.8625C156.114 27.1728 156.524 27.7364 156.634 28.143L156.667 28.2678C156.763 28.6352 156.823 28.967 156.881 29.3308H148.748V29.3272ZM170.959 36.0936C170.592 35.8617 170.406 35.6977 170.228 35.4515C169.95 35.0164 169.703 34.2923 169.703 33.265V26.7162H176.766V21.8546H169.703V14.8813H164.56V33.3613C164.56 38.6118 168.444 40.3596 169.101 40.6627C171.212 41.6436 174.957 41.9326 176.841 41.7435L176.249 36.8783C174.126 37.0245 172.3 36.8676 170.959 36.0936ZM210.812 36.8747C208.693 37.0281 206.867 36.8676 205.526 36.0936C205.158 35.8617 204.973 35.6977 204.794 35.4515C204.516 35.0164 204.27 34.2923 204.27 33.265V26.7162H211.333V21.8546H204.27V14.8813H199.127V33.3613C199.127 38.6118 203.011 40.3596 203.667 40.6627C205.779 41.6436 209.524 41.9326 211.407 41.7435L210.812 36.8747Z" fill="black"/>
<path d="M48.6786 7.55905C44.2129 3.09332 38.2776 0.635742 31.9642 0.635742C25.8007 0.635742 19.9652 2.99345 15.5352 7.2737L15.3283 7.46988L15.2926 7.50198L15.2356 7.55905L2.82639 19.9682L0.201172 22.5934L2.82639 25.2187L8.60831 31.0006C7.845 38.2948 7.65595 44.4941 7.64882 44.7759L7.53467 48.7101L11.4689 48.596C11.7507 48.5889 17.95 48.3998 25.2407 47.6365L31.0226 53.4184L33.6478 56.0436L36.273 53.4184L48.5752 41.1162L48.5966 41.0948L48.618 41.0734L48.9568 40.7203C53.2906 36.2403 55.6519 30.3371 55.6055 24.1022C55.5556 17.8495 53.098 11.9784 48.6786 7.55905Z" fill="white"/>
<path d="M46.0533 10.1842C38.3453 2.47621 25.904 2.40488 18.0997 9.95239L17.8572 10.1807L5.448 22.5898L12.489 29.6309C11.5688 37.6064 11.3547 44.8793 11.3547 44.8793C11.3547 44.8793 18.6276 44.6653 26.6032 43.745L33.6442 50.786L45.9463 38.4839L46.2852 38.1307C53.8363 30.3335 53.7614 17.8923 46.0533 10.1842Z" fill="#ED1C24"/>
<path d="M38.4274 24.2841C38.4274 25.9391 37.796 27.5941 36.5334 28.8604C34.008 31.3857 29.9097 31.3857 27.3843 28.8604C24.859 26.335 24.859 22.2367 27.3843 19.7113C28.647 18.4486 30.302 17.8173 31.9606 17.8173V11.0295C28.5685 11.0295 25.1764 12.3243 22.5869 14.9103C17.4113 20.0858 17.4113 28.4787 22.5869 33.6543C27.7624 38.8298 36.1553 38.8298 41.3308 33.6543C43.9204 31.0647 45.2116 27.6726 45.2116 24.2805H38.4274V24.2841Z" fill="white"/>
</g>
<defs>
<clipPath id="clip0_239_12936">
<rect width="212.943" height="56" fill="white" transform="translate(0 0.317871)"/>
</clipPath>
</defs>
</svg>
