<svg width="40" height="40" viewBox="0 0 40 40" fill="none" xmlns="http://www.w3.org/2000/svg">
<path d="M34.6268 5.15669C31.4369 1.96688 27.1975 0.211464 22.6879 0.211464C18.2854 0.211464 14.1172 1.89554 10.9529 4.95287L10.8051 5.09299L10.7796 5.11592L10.7389 5.15669L1.87516 14.0204L0 15.8955L1.87516 17.7707L6.0051 21.9006C5.45987 27.1108 5.32484 31.5389 5.31975 31.7401L5.23822 34.5503L8.04841 34.4688C8.24968 34.4637 12.6777 34.3287 17.8853 33.7834L22.0153 37.9134L23.8904 39.7885L25.7656 37.9134L34.5529 29.1261L34.5682 29.1108L34.5834 29.0955L34.8255 28.8433C37.921 25.6433 39.6076 21.4268 39.5745 16.9732C39.5389 12.507 37.7834 8.31337 34.6268 5.15669Z" fill="white"/>
<path d="M32.7516 7.03185C27.2459 1.52611 18.3592 1.47516 12.7847 6.86624L12.6115 7.0293L3.74777 15.893L8.77707 20.9223C8.11974 26.6191 7.96688 31.814 7.96688 31.814C7.96688 31.814 13.1618 31.6611 18.8586 31.0038L23.8879 36.0331L32.6752 27.2459L32.9172 26.9936C38.3108 21.4242 38.2573 12.5376 32.7516 7.03185Z" fill="#ED1C24"/>
<path d="M27.3045 17.1032C27.3045 18.2853 26.8535 19.4675 25.9516 20.372C24.1478 22.1758 21.2204 22.1758 19.4166 20.372C17.6127 18.5681 17.6127 15.6408 19.4166 13.8369C20.3185 12.935 21.5006 12.4841 22.6854 12.4841V7.63567C20.2624 7.63567 17.8395 8.56051 15.9898 10.4076C12.293 14.1045 12.293 20.0994 15.9898 23.7962C19.6866 27.493 25.6815 27.493 29.3783 23.7962C31.228 21.9465 32.1503 19.5236 32.1503 17.1006H27.3045V17.1032Z" fill="white"/>
</svg>
