<svg width="213" height="56" viewBox="0 0 213 56" fill="none" xmlns="http://www.w3.org/2000/svg">
<path d="M140.776 26.3878C140.651 25.6601 140.419 24.986 140.084 24.3796C139.802 23.8696 139.442 23.3987 139.011 22.9743C138.843 22.8102 138.433 22.4642 138.415 22.4499C135.64 20.1564 131.106 19.9959 128.117 22.0754C128.028 22.1361 127.796 22.3215 127.582 22.4963C127.415 22.3679 127.193 22.2003 127.19 22.2003C124.714 20.3704 121.176 20.0958 118.362 21.5118H114.353V41.0048H119.496V27.3152C119.493 26.9299 119.707 26.5804 120.195 26.188C121.376 25.2285 123.248 25.2285 124.436 26.2094C124.693 26.3842 125.071 26.9264 125.075 27.3794V41.0013H130.218V27.4079C130.218 26.798 130.917 26.1952 131.121 26.0382C132.323 25.2285 134.01 25.2892 135.123 26.1809C135.148 26.1987 135.75 26.6375 135.754 27.4222L135.758 35.815L135.761 41.0013H140.905V27.9322C140.894 27.8966 140.869 26.9299 140.776 26.3878ZM106.745 21.2479C103.37 20.16 98.448 20.2741 95.2949 21.4084L95.0523 21.4869L96.554 26.213L96.7965 26.1345C99.0722 25.2392 102.785 25.2143 104.726 25.867C105.364 26.081 105.546 26.3985 105.546 26.8265V28.6634C103.103 28.2033 100.249 28.2283 97.8309 28.7383L97.6526 28.7847C96.8393 29.0273 95.8228 29.3269 94.8276 30.1794L94.6279 30.372C92.1524 33.04 92.1845 36.8887 94.7028 39.5246C96.2401 40.9906 98.7012 41.4792 101.826 41.4792C103.702 41.4792 104.69 41.2688 105.935 41.0084H110.504V26.7801C110.504 23.8874 108.903 21.9042 106.745 21.2479ZM105.546 36.4357C103.463 37.3809 100.214 37.2882 98.8582 36.6639C98.234 36.375 97.5456 35.84 97.5456 34.9233C97.5456 34.0744 97.9986 33.518 98.9259 33.1827C100.952 32.6191 103.538 32.6762 105.546 33.4716V36.4357ZM89.4059 34.8127C87.4798 35.9113 85.0686 36.1753 83.328 36.1931C78.823 36.1468 75.1563 32.48 75.1563 28.0214C75.1563 23.5164 78.823 19.8497 83.328 19.8497C87.1338 19.8497 89.6128 21.2158 89.6128 21.2158L91.2393 16.2257C91.2393 16.2257 89.0814 14.5671 83.328 14.5671C75.9089 14.5671 69.8737 20.6023 69.8737 28.0214C69.8737 35.4405 75.9089 41.4757 83.328 41.4757C88.1183 41.4721 91.6245 39.5531 91.6245 39.5531L89.7163 34.6308L89.4059 34.8127ZM196.633 29.2377C196.491 27.8573 196.098 26.6018 196.084 26.559C195.727 25.2357 194.957 24.0265 193.858 23.0634C193.841 23.0492 193.43 22.696 193.113 22.4963C189.518 20.0494 184.51 20.2741 181.207 23.0313C180.226 23.8267 179.548 25.1144 178.999 26.5518C178.371 28.2069 177.843 32.7761 178.981 35.758C179.334 37.0099 180.083 38.1478 181.232 39.1501C181.278 39.1857 182.355 39.999 183.004 40.2986C185.098 41.2688 187.509 41.4757 189.161 41.4757C190.812 41.4757 192.492 41.2795 193.894 40.9192L194.14 40.855L192.935 36.1468L192.688 36.211C190.652 36.7317 186.871 36.9386 184.848 35.7722C184.485 35.5404 184.299 35.3799 184.124 35.1373C183.95 34.8983 183.818 34.638 183.728 34.3455C183.728 34.3419 183.643 34.1208 183.593 33.8711L196.441 33.8925C196.441 33.8925 196.855 31.6097 196.641 29.2555L196.633 29.2377ZM183.468 29.0094C183.536 28.4708 183.7 27.7039 183.921 27.2902C184.046 27.0619 184.267 26.8158 184.406 26.7017C186.047 25.4033 188.69 25.3391 190.42 26.5447C190.834 26.855 191.244 27.4186 191.354 27.8252L191.387 27.9501C191.483 28.3175 191.544 28.6492 191.601 29.013H183.468V29.0094ZM161.913 29.2377C161.771 27.8573 161.378 26.6018 161.364 26.559C161.007 25.2357 160.237 24.0265 159.135 23.0634C159.117 23.0492 158.707 22.696 158.389 22.4963C154.794 20.0494 149.786 20.2741 146.483 23.0313C145.502 23.8267 144.825 25.1144 144.275 26.5518C143.647 28.2069 143.12 32.7761 144.257 35.758C144.611 37.0099 145.36 38.1478 146.508 39.1501C146.554 39.1857 147.632 39.999 148.281 40.2986C150.375 41.2688 152.786 41.4757 154.437 41.4757C156.089 41.4757 157.769 41.2795 159.171 40.9192L159.417 40.855L158.211 36.1468L157.965 36.211C155.928 36.7317 152.147 36.9386 150.125 35.7722C149.761 35.5404 149.576 35.3799 149.401 35.1373C149.226 34.8983 149.094 34.638 149.005 34.3455C149.005 34.3419 148.919 34.1208 148.869 33.8711L161.717 33.8925C161.717 33.8925 162.131 31.6097 161.917 29.2555L161.913 29.2377ZM148.748 29.0094C148.816 28.4708 148.98 27.7039 149.201 27.2902C149.326 27.0619 149.547 26.8158 149.686 26.7017C151.327 25.4033 153.97 25.3391 155.7 26.5447C156.114 26.855 156.524 27.4186 156.634 27.8252L156.667 27.9501C156.763 28.3175 156.824 28.6492 156.881 29.013H148.748V29.0094ZM170.959 35.7758C170.592 35.544 170.406 35.3799 170.228 35.1338C169.95 34.6986 169.704 33.9745 169.704 32.9473V26.3985H176.766V21.5368H169.704V14.5636H164.56V33.0436C164.56 38.294 168.444 40.0418 169.101 40.345C171.212 41.3259 174.958 41.6148 176.841 41.4257L176.249 36.5605C174.126 36.7068 172.3 36.5498 170.959 35.7758ZM210.812 36.5569C208.693 36.7103 206.867 36.5498 205.526 35.7758C205.158 35.544 204.973 35.3799 204.794 35.1338C204.516 34.6986 204.27 33.9745 204.27 32.9473V26.3985H211.333V21.5368H204.27V14.5636H199.127V33.0436C199.127 38.294 203.011 40.0418 203.667 40.345C205.779 41.3259 209.524 41.6148 211.407 41.4257L210.812 36.5569Z" fill="white"/>
<path d="M48.6786 7.24128C44.2129 2.77554 38.2776 0.317965 31.9643 0.317965C25.8007 0.317965 19.9653 2.67567 15.5352 6.95593L15.3283 7.1521L15.2927 7.18421L15.2356 7.24128L2.82642 19.6504L0.201195 22.2757L2.82642 24.9009L8.60833 30.6828C7.84502 37.9771 7.65597 44.1763 7.64884 44.4581L7.5347 48.3924L11.469 48.2782C11.7507 48.2711 17.95 48.082 25.2407 47.3187L31.0226 53.1006L33.6478 55.7259L36.273 53.1006L48.5752 40.7985L48.5966 40.7771L48.618 40.7557L48.9569 40.4025C53.2906 35.9225 55.6519 30.0194 55.6055 23.7845C55.5556 17.5317 53.098 11.6606 48.6786 7.24128Z" fill="white"/>
<path d="M46.0534 9.8665C38.3454 2.15847 25.9041 2.08714 18.0998 9.63465L17.8572 9.86293L5.44807 22.2721L12.4891 29.3131C11.5688 37.2887 11.3548 44.5615 11.3548 44.5615C11.3548 44.5615 18.6277 44.3475 26.6032 43.4273L33.6442 50.4683L45.9464 38.1661L46.2853 37.813C53.8364 30.0158 53.7614 17.5745 46.0534 9.8665Z" fill="#ED1C24"/>
<path d="M38.4274 23.9664C38.4274 25.6214 37.7961 27.2764 36.5334 28.5427C34.0081 31.068 29.9097 31.068 27.3844 28.5427C24.859 26.0173 24.859 21.919 27.3844 19.3936C28.6471 18.131 30.3021 17.4996 31.9607 17.4996V10.7118C28.5686 10.7118 25.1765 12.0066 22.5869 14.5926C17.4114 19.7682 17.4114 28.161 22.5869 33.3366C27.7625 38.5121 36.1553 38.5121 41.3309 33.3366C43.9204 30.747 45.2116 27.3549 45.2116 23.9628H38.4274V23.9664Z" fill="white"/>
</svg>
