<svg width="56" height="56" viewBox="0 0 56 56" fill="none" xmlns="http://www.w3.org/2000/svg">
<path d="M48.4775 6.92331C44.0117 2.45758 38.0764 0 31.7631 0C25.5995 0 19.7641 2.35771 15.334 6.63796L15.1271 6.83414L15.0915 6.86624L15.0344 6.92331L2.62522 19.3325L0 21.9577L2.62522 24.5829L8.40714 30.3648C7.64382 37.6591 7.45478 43.8583 7.44764 44.1401L7.3335 48.0744L11.2678 47.9603C11.5496 47.9531 17.7488 47.7641 25.0395 47.0008L30.8214 52.7827L33.4466 55.4079L36.0718 52.7827L48.374 40.4805L48.3954 40.4591L48.4168 40.4377L48.7557 40.0846C53.0894 35.6046 55.4507 29.7014 55.4043 23.4665C55.3544 17.2138 52.8968 11.3427 48.4775 6.92331Z" fill="white"/>
<path d="M45.8522 9.54856C38.1442 1.84053 25.7029 1.7692 17.8986 9.31671L17.6561 9.54499L5.24689 21.9542L12.2879 28.9952C11.3676 36.9707 11.1536 44.2436 11.1536 44.2436C11.1536 44.2436 18.4265 44.0296 26.402 43.1093L33.4431 50.1503L45.7452 37.8482L46.0841 37.4951C53.6352 29.6979 53.5603 17.2566 45.8522 9.54856Z" fill="#ED1C24"/>
<path d="M38.2262 23.6484C38.2262 25.3034 37.5949 26.9584 36.3322 28.2247C33.8069 30.75 29.7085 30.75 27.1832 28.2247C24.6578 25.6993 24.6578 21.601 27.1832 19.0756C28.4458 17.813 30.1009 17.1816 31.7595 17.1816V10.3939C28.3674 10.3939 24.9753 11.6886 22.3857 14.2746C17.2102 19.4502 17.2102 27.843 22.3857 33.0186C27.5613 38.1941 35.9541 38.1941 41.1297 33.0186C43.7192 30.429 45.0104 27.0369 45.0104 23.6448H38.2262V23.6484Z" fill="white"/>
</svg>
