<svg width="72" height="72" viewBox="0 0 72 72" fill="none" xmlns="http://www.w3.org/2000/svg">
<rect width="72" height="72" rx="13" fill="none"/>
<path d="M46.0323 44.29L42.3223 40.61C43.7624 38.8144 44.4598 36.5353 44.2711 34.2413C44.0824 31.9473 43.022 29.8128 41.3078 28.2766C39.5937 26.7405 37.3561 25.9195 35.0552 25.9825C32.7543 26.0454 30.565 26.9876 28.9374 28.6151C27.3099 30.2427 26.3677 32.432 26.3048 34.7329C26.2418 37.0338 27.0628 39.2714 28.5989 40.9855C30.1351 42.6997 32.2696 43.7601 34.5636 43.9488C36.8576 44.1375 39.1367 43.4401 40.9323 42L44.6123 45.68C44.7053 45.7737 44.8159 45.8481 44.9377 45.8989C45.0596 45.9497 45.1903 45.9758 45.3223 45.9758C45.4543 45.9758 45.585 45.9497 45.7069 45.8989C45.8287 45.8481 45.9393 45.7737 46.0323 45.68C46.2125 45.4935 46.3133 45.2443 46.3133 44.985C46.3133 44.7257 46.2125 44.4765 46.0323 44.29V44.29ZM35.3223 42C33.9378 42 32.5844 41.5895 31.4333 40.8203C30.2822 40.0511 29.3849 38.9579 28.8551 37.6788C28.3253 36.3997 28.1867 34.9922 28.4568 33.6344C28.7269 32.2765 29.3936 31.0292 30.3725 30.0503C31.3515 29.0713 32.5988 28.4046 33.9567 28.1345C35.3145 27.8644 36.722 28.003 38.0011 28.5328C39.2802 29.0627 40.3734 29.9599 41.1426 31.111C41.9117 32.2622 42.3223 33.6155 42.3223 35C42.3223 36.8565 41.5848 38.637 40.272 39.9497C38.9593 41.2625 37.1788 42 35.3223 42V42Z" fill="white"/>
<path fill-rule="evenodd" clip-rule="evenodd" d="M16.2557 16.2557L16 16.5114V22.3021V28.0928L16.2557 28.3484C16.594 28.6868 17.0727 28.6868 17.4109 28.3484L17.6667 28.0928V22.8797V17.6667H22.8797H28.0928L28.3484 17.4109C28.6868 17.0727 28.6868 16.594 28.3484 16.2557L28.0928 16H22.3021H16.5114L16.2557 16.2557ZM43.6516 16.2557C43.4903 16.4169 43.3958 16.6304 43.3958 16.8333C43.3958 17.0362 43.4903 17.2498 43.6516 17.4109L43.9072 17.6667H49.1203H54.3333V22.8797V28.0928L54.5891 28.3484C54.9273 28.6868 55.406 28.6868 55.7443 28.3484L56 28.0928V22.3021V16.5114L55.7443 16.2557L55.4886 16H49.6979H43.9072L43.6516 16.2557ZM16.2557 43.6516L16 43.9072V49.6979V55.4886L16.2557 55.7443L16.5114 56H22.3021H28.0928L28.3484 55.7443C28.6868 55.406 28.6868 54.9273 28.3484 54.5891L28.0928 54.3333H22.8797H17.6667V49.1203V43.9072L17.4109 43.6516C17.2498 43.4903 17.0362 43.3958 16.8333 43.3958C16.6304 43.3958 16.4169 43.4903 16.2557 43.6516ZM54.5891 43.6516L54.3333 43.9072V49.1203V54.3333H49.1203H43.9072L43.6516 54.5891C43.4903 54.7502 43.3958 54.9637 43.3958 55.1667C43.3958 55.3696 43.4903 55.5831 43.6516 55.7443L43.9072 56H49.6979H55.4886L55.7443 55.7443L56 55.4886V49.6979V43.9072L55.7443 43.6516C55.5831 43.4903 55.3696 43.3958 55.1667 43.3958C54.9637 43.3958 54.7502 43.4903 54.5891 43.6516Z" fill="white"/>
</svg>
